<svg xmlns="http://www.w3.org/2000/svg" viewBox="0 0 1600 1000" width="1600" height="1000"><defs><filter id="sh" x="-30%" y="-30%" width="160%" height="160%"><feDropShadow dx="0" dy="7" stdDeviation="7" flood-color="#000" flood-opacity=".45"/></filter><filter id="soft"><feGaussianBlur stdDeviation="3"/></filter><radialGradient id="fireglow"><stop offset="0" stop-color="#ffb347" stop-opacity=".75"/><stop offset=".45" stop-color="#ff7a1a" stop-opacity=".3"/><stop offset="1" stop-color="#ff7a1a" stop-opacity="0"/></radialGradient><radialGradient id="vig" cx=".5" cy=".5" r=".75"><stop offset=".55" stop-color="#000" stop-opacity="0"/><stop offset="1" stop-color="#000" stop-opacity=".55"/></radialGradient><pattern id="cob" width="64" height="44" patternUnits="userSpaceOnUse"><rect width="64" height="44" fill="#5a534b"/><rect x="3" y="3" width="26" height="17" rx="7" fill="#8a8176"/><rect x="33" y="3" width="28" height="17" rx="7" fill="#7d7469"/><rect x="-13" y="24" width="28" height="17" rx="7" fill="#7d7469"/><rect x="19" y="24" width="26" height="17" rx="7" fill="#8a8176"/><rect x="49" y="24" width="28" height="17" rx="7" fill="#857c71"/></pattern><pattern id="aw" width="36" height="10" patternUnits="userSpaceOnUse"><rect width="18" height="10" fill="#b8392a"/><rect x="18" width="18" height="10" fill="#f0e2c0"/></pattern><pattern id="aw2" width="36" height="10" patternUnits="userSpaceOnUse"><rect width="18" height="10" fill="#2f6b8a"/><rect x="18" width="18" height="10" fill="#f0e2c0"/></pattern></defs><rect width="1600" height="1000" fill="url(#cob)"/><g filter="url(#sh)"><rect x="-20" y="-10" width="239" height="290" fill="#4a5563"/><path d="M-20,-10 H219" stroke="#000" stroke-opacity=".18" stroke-width="3"/><path d="M-20,6 H219" stroke="#000" stroke-opacity=".18" stroke-width="3"/><path d="M-20,22 H219" stroke="#000" stroke-opacity=".18" stroke-width="3"/><path d="M-20,38 H219" stroke="#000" stroke-opacity=".18" stroke-width="3"/><path d="M-20,54 H219" stroke="#000" stroke-opacity=".18" stroke-width="3"/><path d="M-20,70 H219" stroke="#000" stroke-opacity=".18" stroke-width="3"/><path d="M-20,86 H219" stroke="#000" stroke-opacity=".18" stroke-width="3"/><path d="M-20,102 H219" stroke="#000" stroke-opacity=".18" stroke-width="3"/><path d="M-20,118 H219" stroke="#000" stroke-opacity=".18" stroke-width="3"/><path d="M-20,134 H219" stroke="#000" stroke-opacity=".18" stroke-width="3"/><path d="M-20,150 H219" stroke="#000" stroke-opacity=".18" stroke-width="3"/><path d="M-20,166 H219" stroke="#000" stroke-opacity=".18" stroke-width="3"/><path d="M-20,182 H219" stroke="#000" stroke-opacity=".18" stroke-width="3"/><path d="M-20,198 H219" stroke="#000" stroke-opacity=".18" stroke-width="3"/><path d="M-20,214 H219" stroke="#000" stroke-opacity=".18" stroke-width="3"/><path d="M-20,230 H219" stroke="#000" stroke-opacity=".18" stroke-width="3"/><path d="M-20,246 H219" stroke="#000" stroke-opacity=".18" stroke-width="3"/><path d="M-20,262 H219" stroke="#000" stroke-opacity=".18" stroke-width="3"/><path d="M-20,278 H219" stroke="#000" stroke-opacity=".18" stroke-width="3"/><path d="M-20,135 H219" stroke="#000" stroke-opacity=".35" stroke-width="6"/><rect x="101" y="85" width="30" height="30" fill="#6d665f" stroke="#2e2a26" stroke-width="3"/></g><g filter="url(#sh)"><rect x="-20" y="720" width="239" height="300" fill="#5d3a2a"/><path d="M-20,720 H219" stroke="#000" stroke-opacity=".18" stroke-width="3"/><path d="M-20,736 H219" stroke="#000" stroke-opacity=".18" stroke-width="3"/><path d="M-20,752 H219" stroke="#000" stroke-opacity=".18" stroke-width="3"/><path d="M-20,768 H219" stroke="#000" stroke-opacity=".18" stroke-width="3"/><path d="M-20,784 H219" stroke="#000" stroke-opacity=".18" stroke-width="3"/><path d="M-20,800 H219" stroke="#000" stroke-opacity=".18" stroke-width="3"/><path d="M-20,816 H219" stroke="#000" stroke-opacity=".18" stroke-width="3"/><path d="M-20,832 H219" stroke="#000" stroke-opacity=".18" stroke-width="3"/><path d="M-20,848 H219" stroke="#000" stroke-opacity=".18" stroke-width="3"/><path d="M-20,864 H219" stroke="#000" stroke-opacity=".18" stroke-width="3"/><path d="M-20,880 H219" stroke="#000" stroke-opacity=".18" stroke-width="3"/><path d="M-20,896 H219" stroke="#000" stroke-opacity=".18" stroke-width="3"/><path d="M-20,912 H219" stroke="#000" stroke-opacity=".18" stroke-width="3"/><path d="M-20,928 H219" stroke="#000" stroke-opacity=".18" stroke-width="3"/><path d="M-20,944 H219" stroke="#000" stroke-opacity=".18" stroke-width="3"/><path d="M-20,960 H219" stroke="#000" stroke-opacity=".18" stroke-width="3"/><path d="M-20,976 H219" stroke="#000" stroke-opacity=".18" stroke-width="3"/><path d="M-20,992 H219" stroke="#000" stroke-opacity=".18" stroke-width="3"/><path d="M-20,1008 H219" stroke="#000" stroke-opacity=".18" stroke-width="3"/><path d="M-20,870 H219" stroke="#000" stroke-opacity=".35" stroke-width="6"/><rect x="17" y="900" width="30" height="30" fill="#6d665f" stroke="#2e2a26" stroke-width="3"/></g><g filter="url(#sh)"><rect x="229" y="-10" width="267" height="290" fill="#9a5a2a"/><path d="M229,-10 H496" stroke="#000" stroke-opacity=".18" stroke-width="3"/><path d="M229,6 H496" stroke="#000" stroke-opacity=".18" stroke-width="3"/><path d="M229,22 H496" stroke="#000" stroke-opacity=".18" stroke-width="3"/><path d="M229,38 H496" stroke="#000" stroke-opacity=".18" stroke-width="3"/><path d="M229,54 H496" stroke="#000" stroke-opacity=".18" stroke-width="3"/><path d="M229,70 H496" stroke="#000" stroke-opacity=".18" stroke-width="3"/><path d="M229,86 H496" stroke="#000" stroke-opacity=".18" stroke-width="3"/><path d="M229,102 H496" stroke="#000" stroke-opacity=".18" stroke-width="3"/><path d="M229,118 H496" stroke="#000" stroke-opacity=".18" stroke-width="3"/><path d="M229,134 H496" stroke="#000" stroke-opacity=".18" stroke-width="3"/><path d="M229,150 H496" stroke="#000" stroke-opacity=".18" stroke-width="3"/><path d="M229,166 H496" stroke="#000" stroke-opacity=".18" stroke-width="3"/><path d="M229,182 H496" stroke="#000" stroke-opacity=".18" stroke-width="3"/><path d="M229,198 H496" stroke="#000" stroke-opacity=".18" stroke-width="3"/><path d="M229,214 H496" stroke="#000" stroke-opacity=".18" stroke-width="3"/><path d="M229,230 H496" stroke="#000" stroke-opacity=".18" stroke-width="3"/><path d="M229,246 H496" stroke="#000" stroke-opacity=".18" stroke-width="3"/><path d="M229,262 H496" stroke="#000" stroke-opacity=".18" stroke-width="3"/><path d="M229,278 H496" stroke="#000" stroke-opacity=".18" stroke-width="3"/><path d="M229,135 H496" stroke="#000" stroke-opacity=".35" stroke-width="6"/><rect x="322" y="85" width="30" height="30" fill="#6d665f" stroke="#2e2a26" stroke-width="3"/></g><g filter="url(#sh)"><rect x="229" y="720" width="267" height="300" fill="#8a3a26"/><path d="M229,720 H496" stroke="#000" stroke-opacity=".18" stroke-width="3"/><path d="M229,736 H496" stroke="#000" stroke-opacity=".18" stroke-width="3"/><path d="M229,752 H496" stroke="#000" stroke-opacity=".18" stroke-width="3"/><path d="M229,768 H496" stroke="#000" stroke-opacity=".18" stroke-width="3"/><path d="M229,784 H496" stroke="#000" stroke-opacity=".18" stroke-width="3"/><path d="M229,800 H496" stroke="#000" stroke-opacity=".18" stroke-width="3"/><path d="M229,816 H496" stroke="#000" stroke-opacity=".18" stroke-width="3"/><path d="M229,832 H496" stroke="#000" stroke-opacity=".18" stroke-width="3"/><path d="M229,848 H496" stroke="#000" stroke-opacity=".18" stroke-width="3"/><path d="M229,864 H496" stroke="#000" stroke-opacity=".18" stroke-width="3"/><path d="M229,880 H496" stroke="#000" stroke-opacity=".18" stroke-width="3"/><path d="M229,896 H496" stroke="#000" stroke-opacity=".18" stroke-width="3"/><path d="M229,912 H496" stroke="#000" stroke-opacity=".18" stroke-width="3"/><path d="M229,928 H496" stroke="#000" stroke-opacity=".18" stroke-width="3"/><path d="M229,944 H496" stroke="#000" stroke-opacity=".18" stroke-width="3"/><path d="M229,960 H496" stroke="#000" stroke-opacity=".18" stroke-width="3"/><path d="M229,976 H496" stroke="#000" stroke-opacity=".18" stroke-width="3"/><path d="M229,992 H496" stroke="#000" stroke-opacity=".18" stroke-width="3"/><path d="M229,1008 H496" stroke="#000" stroke-opacity=".18" stroke-width="3"/><path d="M229,870 H496" stroke="#000" stroke-opacity=".35" stroke-width="6"/><rect x="299" y="900" width="30" height="30" fill="#6d665f" stroke="#2e2a26" stroke-width="3"/></g><g filter="url(#sh)"><rect x="506" y="-10" width="174" height="290" fill="#4a5563"/><path d="M506,-10 H680" stroke="#000" stroke-opacity=".18" stroke-width="3"/><path d="M506,6 H680" stroke="#000" stroke-opacity=".18" stroke-width="3"/><path d="M506,22 H680" stroke="#000" stroke-opacity=".18" stroke-width="3"/><path d="M506,38 H680" stroke="#000" stroke-opacity=".18" stroke-width="3"/><path d="M506,54 H680" stroke="#000" stroke-opacity=".18" stroke-width="3"/><path d="M506,70 H680" stroke="#000" stroke-opacity=".18" stroke-width="3"/><path d="M506,86 H680" stroke="#000" stroke-opacity=".18" stroke-width="3"/><path d="M506,102 H680" stroke="#000" stroke-opacity=".18" stroke-width="3"/><path d="M506,118 H680" stroke="#000" stroke-opacity=".18" stroke-width="3"/><path d="M506,134 H680" stroke="#000" stroke-opacity=".18" stroke-width="3"/><path d="M506,150 H680" stroke="#000" stroke-opacity=".18" stroke-width="3"/><path d="M506,166 H680" stroke="#000" stroke-opacity=".18" stroke-width="3"/><path d="M506,182 H680" stroke="#000" stroke-opacity=".18" stroke-width="3"/><path d="M506,198 H680" stroke="#000" stroke-opacity=".18" stroke-width="3"/><path d="M506,214 H680" stroke="#000" stroke-opacity=".18" stroke-width="3"/><path d="M506,230 H680" stroke="#000" stroke-opacity=".18" stroke-width="3"/><path d="M506,246 H680" stroke="#000" stroke-opacity=".18" stroke-width="3"/><path d="M506,262 H680" stroke="#000" stroke-opacity=".18" stroke-width="3"/><path d="M506,278 H680" stroke="#000" stroke-opacity=".18" stroke-width="3"/><path d="M506,135 H680" stroke="#000" stroke-opacity=".35" stroke-width="6"/><rect x="596" y="85" width="30" height="30" fill="#6d665f" stroke="#2e2a26" stroke-width="3"/></g><g filter="url(#sh)"><rect x="506" y="720" width="174" height="300" fill="#6d4a3a"/><path d="M506,720 H680" stroke="#000" stroke-opacity=".18" stroke-width="3"/><path d="M506,736 H680" stroke="#000" stroke-opacity=".18" stroke-width="3"/><path d="M506,752 H680" stroke="#000" stroke-opacity=".18" stroke-width="3"/><path d="M506,768 H680" stroke="#000" stroke-opacity=".18" stroke-width="3"/><path d="M506,784 H680" stroke="#000" stroke-opacity=".18" stroke-width="3"/><path d="M506,800 H680" stroke="#000" stroke-opacity=".18" stroke-width="3"/><path d="M506,816 H680" stroke="#000" stroke-opacity=".18" stroke-width="3"/><path d="M506,832 H680" stroke="#000" stroke-opacity=".18" stroke-width="3"/><path d="M506,848 H680" stroke="#000" stroke-opacity=".18" stroke-width="3"/><path d="M506,864 H680" stroke="#000" stroke-opacity=".18" stroke-width="3"/><path d="M506,880 H680" stroke="#000" stroke-opacity=".18" stroke-width="3"/><path d="M506,896 H680" stroke="#000" stroke-opacity=".18" stroke-width="3"/><path d="M506,912 H680" stroke="#000" stroke-opacity=".18" stroke-width="3"/><path d="M506,928 H680" stroke="#000" stroke-opacity=".18" stroke-width="3"/><path d="M506,944 H680" stroke="#000" stroke-opacity=".18" stroke-width="3"/><path d="M506,960 H680" stroke="#000" stroke-opacity=".18" stroke-width="3"/><path d="M506,976 H680" stroke="#000" stroke-opacity=".18" stroke-width="3"/><path d="M506,992 H680" stroke="#000" stroke-opacity=".18" stroke-width="3"/><path d="M506,1008 H680" stroke="#000" stroke-opacity=".18" stroke-width="3"/><path d="M506,870 H680" stroke="#000" stroke-opacity=".35" stroke-width="6"/><rect x="584" y="900" width="30" height="30" fill="#6d665f" stroke="#2e2a26" stroke-width="3"/></g><g filter="url(#sh)"><rect x="690" y="-10" width="229" height="290" fill="#8a3a26"/><path d="M690,-10 H919" stroke="#000" stroke-opacity=".18" stroke-width="3"/><path d="M690,6 H919" stroke="#000" stroke-opacity=".18" stroke-width="3"/><path d="M690,22 H919" stroke="#000" stroke-opacity=".18" stroke-width="3"/><path d="M690,38 H919" stroke="#000" stroke-opacity=".18" stroke-width="3"/><path d="M690,54 H919" stroke="#000" stroke-opacity=".18" stroke-width="3"/><path d="M690,70 H919" stroke="#000" stroke-opacity=".18" stroke-width="3"/><path d="M690,86 H919" stroke="#000" stroke-opacity=".18" stroke-width="3"/><path d="M690,102 H919" stroke="#000" stroke-opacity=".18" stroke-width="3"/><path d="M690,118 H919" stroke="#000" stroke-opacity=".18" stroke-width="3"/><path d="M690,134 H919" stroke="#000" stroke-opacity=".18" stroke-width="3"/><path d="M690,150 H919" stroke="#000" stroke-opacity=".18" stroke-width="3"/><path d="M690,166 H919" stroke="#000" stroke-opacity=".18" stroke-width="3"/><path d="M690,182 H919" stroke="#000" stroke-opacity=".18" stroke-width="3"/><path d="M690,198 H919" stroke="#000" stroke-opacity=".18" stroke-width="3"/><path d="M690,214 H919" stroke="#000" stroke-opacity=".18" stroke-width="3"/><path d="M690,230 H919" stroke="#000" stroke-opacity=".18" stroke-width="3"/><path d="M690,246 H919" stroke="#000" stroke-opacity=".18" stroke-width="3"/><path d="M690,262 H919" stroke="#000" stroke-opacity=".18" stroke-width="3"/><path d="M690,278 H919" stroke="#000" stroke-opacity=".18" stroke-width="3"/><path d="M690,135 H919" stroke="#000" stroke-opacity=".35" stroke-width="6"/><rect x="866" y="85" width="30" height="30" fill="#6d665f" stroke="#2e2a26" stroke-width="3"/></g><g filter="url(#sh)"><rect x="690" y="720" width="229" height="300" fill="#6d4a3a"/><path d="M690,720 H919" stroke="#000" stroke-opacity=".18" stroke-width="3"/><path d="M690,736 H919" stroke="#000" stroke-opacity=".18" stroke-width="3"/><path d="M690,752 H919" stroke="#000" stroke-opacity=".18" stroke-width="3"/><path d="M690,768 H919" stroke="#000" stroke-opacity=".18" stroke-width="3"/><path d="M690,784 H919" stroke="#000" stroke-opacity=".18" stroke-width="3"/><path d="M690,800 H919" stroke="#000" stroke-opacity=".18" stroke-width="3"/><path d="M690,816 H919" stroke="#000" stroke-opacity=".18" stroke-width="3"/><path d="M690,832 H919" stroke="#000" stroke-opacity=".18" stroke-width="3"/><path d="M690,848 H919" stroke="#000" stroke-opacity=".18" stroke-width="3"/><path d="M690,864 H919" stroke="#000" stroke-opacity=".18" stroke-width="3"/><path d="M690,880 H919" stroke="#000" stroke-opacity=".18" stroke-width="3"/><path d="M690,896 H919" stroke="#000" stroke-opacity=".18" stroke-width="3"/><path d="M690,912 H919" stroke="#000" stroke-opacity=".18" stroke-width="3"/><path d="M690,928 H919" stroke="#000" stroke-opacity=".18" stroke-width="3"/><path d="M690,944 H919" stroke="#000" stroke-opacity=".18" stroke-width="3"/><path d="M690,960 H919" stroke="#000" stroke-opacity=".18" stroke-width="3"/><path d="M690,976 H919" stroke="#000" stroke-opacity=".18" stroke-width="3"/><path d="M690,992 H919" stroke="#000" stroke-opacity=".18" stroke-width="3"/><path d="M690,1008 H919" stroke="#000" stroke-opacity=".18" stroke-width="3"/><path d="M690,870 H919" stroke="#000" stroke-opacity=".35" stroke-width="6"/><rect x="723" y="900" width="30" height="30" fill="#6d665f" stroke="#2e2a26" stroke-width="3"/></g><g filter="url(#sh)"><rect x="929" y="-10" width="253" height="290" fill="#6d4a3a"/><path d="M929,-10 H1182" stroke="#000" stroke-opacity=".18" stroke-width="3"/><path d="M929,6 H1182" stroke="#000" stroke-opacity=".18" stroke-width="3"/><path d="M929,22 H1182" stroke="#000" stroke-opacity=".18" stroke-width="3"/><path d="M929,38 H1182" stroke="#000" stroke-opacity=".18" stroke-width="3"/><path d="M929,54 H1182" stroke="#000" stroke-opacity=".18" stroke-width="3"/><path d="M929,70 H1182" stroke="#000" stroke-opacity=".18" stroke-width="3"/><path d="M929,86 H1182" stroke="#000" stroke-opacity=".18" stroke-width="3"/><path d="M929,102 H1182" stroke="#000" stroke-opacity=".18" stroke-width="3"/><path d="M929,118 H1182" stroke="#000" stroke-opacity=".18" stroke-width="3"/><path d="M929,134 H1182" stroke="#000" stroke-opacity=".18" stroke-width="3"/><path d="M929,150 H1182" stroke="#000" stroke-opacity=".18" stroke-width="3"/><path d="M929,166 H1182" stroke="#000" stroke-opacity=".18" stroke-width="3"/><path d="M929,182 H1182" stroke="#000" stroke-opacity=".18" stroke-width="3"/><path d="M929,198 H1182" stroke="#000" stroke-opacity=".18" stroke-width="3"/><path d="M929,214 H1182" stroke="#000" stroke-opacity=".18" stroke-width="3"/><path d="M929,230 H1182" stroke="#000" stroke-opacity=".18" stroke-width="3"/><path d="M929,246 H1182" stroke="#000" stroke-opacity=".18" stroke-width="3"/><path d="M929,262 H1182" stroke="#000" stroke-opacity=".18" stroke-width="3"/><path d="M929,278 H1182" stroke="#000" stroke-opacity=".18" stroke-width="3"/><path d="M929,135 H1182" stroke="#000" stroke-opacity=".35" stroke-width="6"/><rect x="1063" y="85" width="30" height="30" fill="#6d665f" stroke="#2e2a26" stroke-width="3"/></g><g filter="url(#sh)"><rect x="929" y="720" width="253" height="300" fill="#4a5563"/><path d="M929,720 H1182" stroke="#000" stroke-opacity=".18" stroke-width="3"/><path d="M929,736 H1182" stroke="#000" stroke-opacity=".18" stroke-width="3"/><path d="M929,752 H1182" stroke="#000" stroke-opacity=".18" stroke-width="3"/><path d="M929,768 H1182" stroke="#000" stroke-opacity=".18" stroke-width="3"/><path d="M929,784 H1182" stroke="#000" stroke-opacity=".18" stroke-width="3"/><path d="M929,800 H1182" stroke="#000" stroke-opacity=".18" stroke-width="3"/><path d="M929,816 H1182" stroke="#000" stroke-opacity=".18" stroke-width="3"/><path d="M929,832 H1182" stroke="#000" stroke-opacity=".18" stroke-width="3"/><path d="M929,848 H1182" stroke="#000" stroke-opacity=".18" stroke-width="3"/><path d="M929,864 H1182" stroke="#000" stroke-opacity=".18" stroke-width="3"/><path d="M929,880 H1182" stroke="#000" stroke-opacity=".18" stroke-width="3"/><path d="M929,896 H1182" stroke="#000" stroke-opacity=".18" stroke-width="3"/><path d="M929,912 H1182" stroke="#000" stroke-opacity=".18" stroke-width="3"/><path d="M929,928 H1182" stroke="#000" stroke-opacity=".18" stroke-width="3"/><path d="M929,944 H1182" stroke="#000" stroke-opacity=".18" stroke-width="3"/><path d="M929,960 H1182" stroke="#000" stroke-opacity=".18" stroke-width="3"/><path d="M929,976 H1182" stroke="#000" stroke-opacity=".18" stroke-width="3"/><path d="M929,992 H1182" stroke="#000" stroke-opacity=".18" stroke-width="3"/><path d="M929,1008 H1182" stroke="#000" stroke-opacity=".18" stroke-width="3"/><path d="M929,870 H1182" stroke="#000" stroke-opacity=".35" stroke-width="6"/><rect x="1005" y="900" width="30" height="30" fill="#6d665f" stroke="#2e2a26" stroke-width="3"/></g><g filter="url(#sh)"><rect x="1192" y="-10" width="258" height="290" fill="#9a5a2a"/><path d="M1192,-10 H1450" stroke="#000" stroke-opacity=".18" stroke-width="3"/><path d="M1192,6 H1450" stroke="#000" stroke-opacity=".18" stroke-width="3"/><path d="M1192,22 H1450" stroke="#000" stroke-opacity=".18" stroke-width="3"/><path d="M1192,38 H1450" stroke="#000" stroke-opacity=".18" stroke-width="3"/><path d="M1192,54 H1450" stroke="#000" stroke-opacity=".18" stroke-width="3"/><path d="M1192,70 H1450" stroke="#000" stroke-opacity=".18" stroke-width="3"/><path d="M1192,86 H1450" stroke="#000" stroke-opacity=".18" stroke-width="3"/><path d="M1192,102 H1450" stroke="#000" stroke-opacity=".18" stroke-width="3"/><path d="M1192,118 H1450" stroke="#000" stroke-opacity=".18" stroke-width="3"/><path d="M1192,134 H1450" stroke="#000" stroke-opacity=".18" stroke-width="3"/><path d="M1192,150 H1450" stroke="#000" stroke-opacity=".18" stroke-width="3"/><path d="M1192,166 H1450" stroke="#000" stroke-opacity=".18" stroke-width="3"/><path d="M1192,182 H1450" stroke="#000" stroke-opacity=".18" stroke-width="3"/><path d="M1192,198 H1450" stroke="#000" stroke-opacity=".18" stroke-width="3"/><path d="M1192,214 H1450" stroke="#000" stroke-opacity=".18" stroke-width="3"/><path d="M1192,230 H1450" stroke="#000" stroke-opacity=".18" stroke-width="3"/><path d="M1192,246 H1450" stroke="#000" stroke-opacity=".18" stroke-width="3"/><path d="M1192,262 H1450" stroke="#000" stroke-opacity=".18" stroke-width="3"/><path d="M1192,278 H1450" stroke="#000" stroke-opacity=".18" stroke-width="3"/><path d="M1192,135 H1450" stroke="#000" stroke-opacity=".35" stroke-width="6"/><rect x="1262" y="85" width="30" height="30" fill="#6d665f" stroke="#2e2a26" stroke-width="3"/></g><g filter="url(#sh)"><rect x="1192" y="720" width="258" height="300" fill="#8a3a26"/><path d="M1192,720 H1450" stroke="#000" stroke-opacity=".18" stroke-width="3"/><path d="M1192,736 H1450" stroke="#000" stroke-opacity=".18" stroke-width="3"/><path d="M1192,752 H1450" stroke="#000" stroke-opacity=".18" stroke-width="3"/><path d="M1192,768 H1450" stroke="#000" stroke-opacity=".18" stroke-width="3"/><path d="M1192,784 H1450" stroke="#000" stroke-opacity=".18" stroke-width="3"/><path d="M1192,800 H1450" stroke="#000" stroke-opacity=".18" stroke-width="3"/><path d="M1192,816 H1450" stroke="#000" stroke-opacity=".18" stroke-width="3"/><path d="M1192,832 H1450" stroke="#000" stroke-opacity=".18" stroke-width="3"/><path d="M1192,848 H1450" stroke="#000" stroke-opacity=".18" stroke-width="3"/><path d="M1192,864 H1450" stroke="#000" stroke-opacity=".18" stroke-width="3"/><path d="M1192,880 H1450" stroke="#000" stroke-opacity=".18" stroke-width="3"/><path d="M1192,896 H1450" stroke="#000" stroke-opacity=".18" stroke-width="3"/><path d="M1192,912 H1450" stroke="#000" stroke-opacity=".18" stroke-width="3"/><path d="M1192,928 H1450" stroke="#000" stroke-opacity=".18" stroke-width="3"/><path d="M1192,944 H1450" stroke="#000" stroke-opacity=".18" stroke-width="3"/><path d="M1192,960 H1450" stroke="#000" stroke-opacity=".18" stroke-width="3"/><path d="M1192,976 H1450" stroke="#000" stroke-opacity=".18" stroke-width="3"/><path d="M1192,992 H1450" stroke="#000" stroke-opacity=".18" stroke-width="3"/><path d="M1192,1008 H1450" stroke="#000" stroke-opacity=".18" stroke-width="3"/><path d="M1192,870 H1450" stroke="#000" stroke-opacity=".35" stroke-width="6"/><rect x="1257" y="900" width="30" height="30" fill="#6d665f" stroke="#2e2a26" stroke-width="3"/></g><g filter="url(#sh)"><rect x="1460" y="-10" width="239" height="290" fill="#5d3a2a"/><path d="M1460,-10 H1699" stroke="#000" stroke-opacity=".18" stroke-width="3"/><path d="M1460,6 H1699" stroke="#000" stroke-opacity=".18" stroke-width="3"/><path d="M1460,22 H1699" stroke="#000" stroke-opacity=".18" stroke-width="3"/><path d="M1460,38 H1699" stroke="#000" stroke-opacity=".18" stroke-width="3"/><path d="M1460,54 H1699" stroke="#000" stroke-opacity=".18" stroke-width="3"/><path d="M1460,70 H1699" stroke="#000" stroke-opacity=".18" stroke-width="3"/><path d="M1460,86 H1699" stroke="#000" stroke-opacity=".18" stroke-width="3"/><path d="M1460,102 H1699" stroke="#000" stroke-opacity=".18" stroke-width="3"/><path d="M1460,118 H1699" stroke="#000" stroke-opacity=".18" stroke-width="3"/><path d="M1460,134 H1699" stroke="#000" stroke-opacity=".18" stroke-width="3"/><path d="M1460,150 H1699" stroke="#000" stroke-opacity=".18" stroke-width="3"/><path d="M1460,166 H1699" stroke="#000" stroke-opacity=".18" stroke-width="3"/><path d="M1460,182 H1699" stroke="#000" stroke-opacity=".18" stroke-width="3"/><path d="M1460,198 H1699" stroke="#000" stroke-opacity=".18" stroke-width="3"/><path d="M1460,214 H1699" stroke="#000" stroke-opacity=".18" stroke-width="3"/><path d="M1460,230 H1699" stroke="#000" stroke-opacity=".18" stroke-width="3"/><path d="M1460,246 H1699" stroke="#000" stroke-opacity=".18" stroke-width="3"/><path d="M1460,262 H1699" stroke="#000" stroke-opacity=".18" stroke-width="3"/><path d="M1460,278 H1699" stroke="#000" stroke-opacity=".18" stroke-width="3"/><path d="M1460,135 H1699" stroke="#000" stroke-opacity=".35" stroke-width="6"/><rect x="1603" y="85" width="30" height="30" fill="#6d665f" stroke="#2e2a26" stroke-width="3"/></g><g filter="url(#sh)"><rect x="1460" y="720" width="239" height="300" fill="#6d4a3a"/><path d="M1460,720 H1699" stroke="#000" stroke-opacity=".18" stroke-width="3"/><path d="M1460,736 H1699" stroke="#000" stroke-opacity=".18" stroke-width="3"/><path d="M1460,752 H1699" stroke="#000" stroke-opacity=".18" stroke-width="3"/><path d="M1460,768 H1699" stroke="#000" stroke-opacity=".18" stroke-width="3"/><path d="M1460,784 H1699" stroke="#000" stroke-opacity=".18" stroke-width="3"/><path d="M1460,800 H1699" stroke="#000" stroke-opacity=".18" stroke-width="3"/><path d="M1460,816 H1699" stroke="#000" stroke-opacity=".18" stroke-width="3"/><path d="M1460,832 H1699" stroke="#000" stroke-opacity=".18" stroke-width="3"/><path d="M1460,848 H1699" stroke="#000" stroke-opacity=".18" stroke-width="3"/><path d="M1460,864 H1699" stroke="#000" stroke-opacity=".18" stroke-width="3"/><path d="M1460,880 H1699" stroke="#000" stroke-opacity=".18" stroke-width="3"/><path d="M1460,896 H1699" stroke="#000" stroke-opacity=".18" stroke-width="3"/><path d="M1460,912 H1699" stroke="#000" stroke-opacity=".18" stroke-width="3"/><path d="M1460,928 H1699" stroke="#000" stroke-opacity=".18" stroke-width="3"/><path d="M1460,944 H1699" stroke="#000" stroke-opacity=".18" stroke-width="3"/><path d="M1460,960 H1699" stroke="#000" stroke-opacity=".18" stroke-width="3"/><path d="M1460,976 H1699" stroke="#000" stroke-opacity=".18" stroke-width="3"/><path d="M1460,992 H1699" stroke="#000" stroke-opacity=".18" stroke-width="3"/><path d="M1460,1008 H1699" stroke="#000" stroke-opacity=".18" stroke-width="3"/><path d="M1460,870 H1699" stroke="#000" stroke-opacity=".35" stroke-width="6"/><rect x="1523" y="900" width="30" height="30" fill="#6d665f" stroke="#2e2a26" stroke-width="3"/></g><rect x="0" y="280" width="1600" height="26" fill="#6d665f"/><rect x="0" y="694" width="1600" height="26" fill="#6d665f"/><g filter="url(#sh)"><rect x="240" y="330" width="170" height="90" rx="6" fill="url(#aw)"/></g><rect x="250" y="425" width="150" height="26" fill="#7a4a26"/><circle cx="270" cy="438" r="9" fill="#d9463a"/><circle cx="307" cy="438" r="9" fill="#d9463a"/><circle cx="344" cy="438" r="9" fill="#e8c040"/><circle cx="381" cy="438" r="9" fill="#e8c040"/><g filter="url(#sh)"><rect x="560" y="330" width="170" height="90" rx="6" fill="url(#aw2)"/></g><rect x="570" y="425" width="150" height="26" fill="#7a4a26"/><circle cx="590" cy="438" r="9" fill="#e8c040"/><circle cx="627" cy="438" r="9" fill="#e8c040"/><circle cx="664" cy="438" r="9" fill="#7ab04a"/><circle cx="701" cy="438" r="9" fill="#7ab04a"/><g filter="url(#sh)"><rect x="1040" y="330" width="170" height="90" rx="6" fill="url(#aw)"/></g><rect x="1050" y="425" width="150" height="26" fill="#7a4a26"/><circle cx="1070" cy="438" r="9" fill="#e8c040"/><circle cx="1107" cy="438" r="9" fill="#e8c040"/><circle cx="1144" cy="438" r="9" fill="#e8c040"/><circle cx="1181" cy="438" r="9" fill="#e8c040"/><g filter="url(#sh)"><rect x="1320" y="330" width="170" height="90" rx="6" fill="url(#aw2)"/></g><rect x="1330" y="425" width="150" height="26" fill="#7a4a26"/><circle cx="1350" cy="438" r="9" fill="#e8dcc0"/><circle cx="1387" cy="438" r="9" fill="#7ab04a"/><circle cx="1424" cy="438" r="9" fill="#d9463a"/><circle cx="1461" cy="438" r="9" fill="#7ab04a"/><g filter="url(#sh)"><circle cx="820" cy="560" r="70" fill="#7a736b"/><circle cx="820" cy="560" r="50" fill="#1f4a5a"/><circle cx="820" cy="560" r="50" fill="none" stroke="#9a9186" stroke-width="8"/><path d="M760,560 H880" stroke="#5a3820" stroke-width="10"/></g><g filter="url(#sh)"><circle cx="140" cy="620" r="26" fill="#7a4a26"/><circle cx="140" cy="620" r="20" fill="none" stroke="#3b2414" stroke-width="4"/><circle cx="140" cy="620" r="12" fill="#8e5a30"/></g><g filter="url(#sh)"><circle cx="1480" cy="380" r="26" fill="#7a4a26"/><circle cx="1480" cy="380" r="20" fill="none" stroke="#3b2414" stroke-width="4"/><circle cx="1480" cy="380" r="12" fill="#8e5a30"/></g><g filter="url(#sh)"><circle cx="1440" cy="640" r="26" fill="#7a4a26"/><circle cx="1440" cy="640" r="20" fill="none" stroke="#3b2414" stroke-width="4"/><circle cx="1440" cy="640" r="12" fill="#8e5a30"/></g><g transform="rotate(12 1208.0 588.0)" filter="url(#sh)"><rect x="1180" y="560" width="56" height="56" rx="4" fill="#a06a36" stroke="#5a3820" stroke-width="4"/><path d="M1180,560 L1236,616 M1236,560 L1180,616" stroke="#5a3820" stroke-width="4"/></g><g transform="rotate(-8 1260.0 624.0)" filter="url(#sh)"><rect x="1236" y="600" width="48" height="48" rx="4" fill="#a06a36" stroke="#5a3820" stroke-width="4"/><path d="M1236,600 L1284,648 M1284,600 L1236,648" stroke="#5a3820" stroke-width="4"/></g><g transform="rotate(5 126.0 376.0)" filter="url(#sh)"><rect x="100" y="350" width="52" height="52" rx="4" fill="#a06a36" stroke="#5a3820" stroke-width="4"/><path d="M100,350 L152,402 M152,350 L100,402" stroke="#5a3820" stroke-width="4"/></g><rect width="1600" height="1000" fill="url(#vig)" opacity=".7"/></svg>